<svg height="30px" viewBox="-9 0 512 512" width="30px" xmlns="http://www.w3.org/2000/svg"><path d="m277.492188 52.5v90c24.855468 0 45-20.144531 45-45zm0 0" fill="#a45e43"/><path d="m277.492188 52.5-45 45c0 24.855469 20.148437 45 45 45 8.285156 0 15-20.144531 15-45 0-24.851562-6.714844-45-15-45zm0 0" fill="#c27749"/><path d="m277.492188 52.5c-24.851563 0-45 20.148438-45 45 24.855468 0 45-20.144531 45-45zm0 0" fill="#fff"/><g fill="#ebebeb"><path d="m322.492188 97.5c0-24.851562-20.144532-45-45-45 0 24.855469 20.148437 45 45 45zm0 0"/><path d="m262.492188 52.5h30c8.285156 0 15-6.714844 15-15 0-16.566406-13.429688-30-30-30-16.566407 0-30 13.433594-30 30 0 8.285156 6.71875 15 15 15zm0 0"/><path d="m307.5 172.53125h-30l-20 119.96875h65zm0 0"/></g><path d="m247.5 172.53125-15 119.96875h45v-119.96875zm0 0" fill="#fff"/><path d="m322.5 262.5v90h-45l-30-45 30-45zm0 0" fill="#60312c"/><path d="m232.5 262.5h45v90h-45zm0 0" fill="#85453d"/><path d="m317.492188 172.53125c11.046874 0 20 8.925781 20 19.96875l.007812 190c-16.570312 0-30-13.429688-30-30v-179.96875zm0 0" fill="#9db55f"/><path d="m237.507812 172.53125c-11.046874 0-20 8.925781-20 19.96875l-.007812 190c16.570312 0 30-13.429688 30-30v-179.96875zm0 0" fill="#b9d171"/><path d="m127.503906 52.53125v90c24.851563 0 45-20.148438 45-45s-20.148437-45-45-45zm0 0" fill="#ff8d7e"/><path d="m142.503906 97.53125c0-24.851562-6.71875-45-15-45-24.855468 0-45 20.148438-45 45s20.144532 45 45 45c8.28125 0 15-20.148438 15-45zm0 0" fill="#ffb4a9"/><path d="m127.5 382.5h30l15-30v-60h-75zm0 0" fill="#60312c"/><path d="m127.5 382.5h-30l-15-30v-60h45zm0 0" fill="#85453d"/><path d="m112.5 247.5 15 90c24.851562 0 45-20.148438 45-45zm0 0" fill="#ffa754"/><path d="m82.5 292.5c0 24.851562 20.148438 45 45 45v-90zm0 0" fill="#ffcb63"/><path d="m157.5 172.53125h-30l-30 59.960938 30 59.996093 45 .011719v-90zm0 0" fill="#fff0d3"/><path d="m127.5 172.53125h-30l-15 29.96875v90l45-.011719zm0 0" fill="#fff"/><path d="m87.5 172.53125c-11.046875 0-20 8.925781-20 19.96875v160c0 16.566406 13.433594 30 30 30v-209.96875zm0 0" fill="#e18f4e"/><path d="m167.5 172.5c11.046875 0 20 8.953125 20 20v160c0 16.566406-13.429688 30-30 30v-209.96875zm0 0" fill="#c27749"/><path d="m452.5 227.5h-30v120h50v-100c0-11.046875-8.957031-20-20-20zm0 0" fill="#ffe2a8"/><path d="m422.5 227.5h-20c-11.046875 0-20 8.953125-20 20v100h60v-100c0-11.046875-8.957031-20-20-20zm0 0" fill="#fff0d3"/><path d="m472.5 307.5h-30l15 75h30v-35.335938c0-15.210937-5.675781-29.089843-15-39.664062zm0 0" fill="#ff6b8a"/><path d="m442.5 307.5h-60c-9.332031 10.574219-15 24.453125-15 39.664062v35.335938h90v-35.335938c-.003906-15.210937-5.671875-29.089843-15-39.664062zm0 0" fill="#ff8d7e"/><path d="m427.496094 117.5v80c24.851562 0 45-20.148438 45-45 0-5.261719-.914063-10.304688-2.574219-15zm0 0" fill="#a45e43"/><path d="m427.496094 107.5 14.140625 30h28.285156c-6.175781-17.476562-22.835937-30-42.425781-30zm0 0" fill="#40211d"/><path d="m385.066406 137.5c-1.660156 4.695312-2.574218 9.738281-2.574218 15 0 24.851562 20.148437 45 45 45 8.285156 0 15-20.148438 15-45 0-5.261719-.304688-10.304688-.855469-15l-14.144531-20zm0 0" fill="#c27749"/><path d="m427.496094 107.5c-19.59375 0-36.25 12.523438-42.429688 30h56.570313c-2.058594-17.476562-7.613281-30-14.140625-30zm0 0" fill="#60312c"/><path d="m412.496094 107.5h30c8.285156 0 15-6.714844 15-15 0-16.566406-13.429688-30-30-30-16.570313 0-30 13.433594-30 30 0 8.285156 6.714844 15 15 15zm0 0" fill="#40211d"/><path d="m224.992188 97.5c0 28.949219 23.550781 52.5 52.5 52.5 28.949218 0 52.5-23.550781 52.5-52.5 0-17.855469-8.96875-33.648438-22.628907-43.136719 4.671875-4.125 7.628907-10.15625 7.628907-16.863281 0-20.679688-16.824219-37.5-37.5-37.5-20.679688 0-37.5 16.820312-37.5 37.5 0 6.707031 2.953124 12.738281 7.625 16.863281-13.65625 9.488281-22.625 25.28125-22.625 43.136719zm52.5 37.5c-18.332032 0-33.625-13.226562-36.859376-30.636719 15.628907-2.445312 29-11.804687 36.859376-24.84375 7.859374 13.039063 21.230468 22.398438 36.859374 24.84375-3.234374 17.410157-18.527343 30.636719-36.859374 30.636719zm-36.519532-45.980469c3.21875-13.878906 14.164063-24.820312 28.042969-28.042969-3.222656 13.882813-14.164063 24.824219-28.042969 28.042969zm45-28.039062c13.878906 3.21875 24.820313 14.164062 28.042969 28.042969-13.878906-3.222657-24.824219-14.164063-28.042969-28.042969zm-23.480468-15.980469c-4.136719 0-7.5-3.363281-7.5-7.5 0-12.40625 10.09375-22.5 22.5-22.5s22.5 10.09375 22.5 22.5c0 4.136719-3.363282 7.5-7.5 7.5zm0 0"/><path d="m285 202.5c0 4.140625-3.359375 7.5-7.5 7.5-4.144531 0-7.5-3.359375-7.5-7.5 0-4.144531 3.355469-7.5 7.5-7.5 4.140625 0 7.5 3.355469 7.5 7.5zm0 0"/><path d="m285 232.5c0 4.140625-3.359375 7.5-7.5 7.5-4.144531 0-7.5-3.359375-7.5-7.5 0-4.144531 3.355469-7.5 7.5-7.5 4.140625 0 7.5 3.355469 7.5 7.5zm0 0"/><path d="m339.871094 497.382812-24.871094-8.289062v-106.617188c6.269531 4.71875 14.0625 7.523438 22.5 7.523438 4.140625 0 7.5-3.359375 7.5-7.5v-190c0-15.164062-12.339844-27.5-27.5-27.5-.003906 0-79.996094.03125-79.996094.03125-15.160156 0-27.5 12.335938-27.5 27.5l-.003906 189.96875c0 1.988281.789062 3.894531 2.195312 5.300781s3.316407 2.199219 5.304688 2.199219c8.433594 0 16.226562-2.804688 22.5-7.523438v106.617188l-24.871094 8.289062c-3.933594 1.308594-6.054687 5.558594-4.746094 9.488282 1.050782 3.140625 3.976563 5.128906 7.117188 5.128906.785156 0 1.585938-.125 2.371094-.386719l30-10c3.0625-1.019531 5.128906-3.886719 5.128906-7.113281v-134.5h45v134.5c0 3.226562 2.0625 6.09375 5.125 7.113281l30 10c.789062.261719 1.589844.386719 2.375.386719 3.140625 0 6.066406-1.988281 7.113281-5.128906 1.308594-3.929688-.8125-8.179688-4.742187-9.488282zm-84.871094-317.359374 45-.015626v75.023438h-45zm62.5-.023438c6.890625 0 12.5 5.605469 12.5 12.5v181.214844c-8.730469-3.097656-15-11.4375-15-21.214844v-172.5zm-92.5 193.714844.003906-181.183594c0-6.894531 5.609375-12.5 12.503906-12.5l2.492188-.003906v172.472656c0 9.777344-6.269531 18.117188-15 21.214844zm30-28.714844v-74.96875h45v74.96875zm0 0"/><path d="m127.5 150.03125c28.949219 0 52.5-23.550781 52.5-52.5s-23.550781-52.5-52.5-52.5c-28.945312 0-52.5 23.550781-52.5 52.5s23.554688 52.5 52.5 52.5zm0-90c20.679688 0 37.5 16.820312 37.5 37.5 0 20.675781-16.820312 37.5-37.5 37.5-20.675781 0-37.5-16.824219-37.5-37.5 0-20.679688 16.824219-37.5 37.5-37.5zm0 0"/><path d="m189.871094 497.382812-24.871094-8.289062v-99.851562c17.09375-3.484376 30-18.632813 30-36.742188v-160c0-15.164062-12.335938-27.5-27.5-27.5h-80c-15.164062 0-27.5 12.335938-27.5 27.5v62.53125h-7.5c-18.484375 0-33.875 13.445312-36.9375 31.066406-9.019531 2.933594-15.5625 11.414063-15.5625 21.402344v196.996094c0 4.144531 3.355469 7.5 7.5 7.5s7.5-3.355469 7.5-7.5v-196.996094c0-4.035156 3.203125-7.324219 7.195312-7.484375.101563.003906.203126.011719.304688.011719s.203125-.007813.304688-.011719c3.992187.160156 7.195312 3.449219 7.195312 7.484375 0 4.140625 3.355469 7.5 7.5 7.5s7.5-3.359375 7.5-7.5c0-9.476562-5.890625-17.597656-14.199219-20.90625 2.613281-9.535156 11.347657-16.5625 21.699219-16.5625h7.5v82.46875c0 18.109375 12.902344 33.257812 30 36.742188v99.851562l-24.871094 8.289062c-3.929687 1.308594-6.054687 5.558594-4.746094 9.488282 1.050782 3.140625 3.976563 5.128906 7.117188 5.128906.785156 0 1.585938-.125 2.371094-.386719l30-10c3.0625-1.019531 5.128906-3.886719 5.128906-7.113281v-104.5h45v104.5c0 3.226562 2.0625 6.09375 5.128906 7.113281l30 10c.785156.261719 1.585938.386719 2.371094.386719 3.140625 0 6.066406-1.988281 7.113281-5.128906 1.3125-3.929688-.8125-8.179688-4.742187-9.488282zm-62.371094-227.382812c4.140625 0 7.5-3.359375 7.5-7.5v-82.5h15v105h-45v-105h15v82.5c0 4.140625 3.355469 7.5 7.5 7.5zm-22.5 30h45v22.496094c-6.46875 4.855468-14.339844 7.503906-22.5 7.503906s-16.035156-2.648438-22.5-7.503906zm75-107.5v160c0 9.777344-6.273438 18.113281-15 21.207031v-193.707031h2.5c6.890625 0 12.5 5.605469 12.5 12.5zm-105 160v-160c0-6.894531 5.605469-12.5 12.5-12.5h2.5v145.71875c-.003906.039062 0 .082031 0 .125v47.863281c-8.730469-3.09375-15-11.429687-15-21.207031zm30 22.5v-35.074219c6.972656 3.3125 14.640625 5.074219 22.5 5.074219s15.527344-1.761719 22.5-5.074219v35.074219zm0 0"/><path d="m489.871094 497.382812-24.871094-8.289062v-99.09375h22.496094c4.144531 0 7.5-3.359375 7.5-7.5v-35.335938c0-15.472656-5.308594-30.417968-15-42.40625v-57.257812c0-15.164062-12.335938-27.5-27.5-27.5h-50c-15.160156 0-27.5 12.335938-27.5 27.5v57.257812c-9.691406 11.988282-15 26.933594-15 42.40625v35.335938c0 4.140625 3.359375 7.5 7.5 7.5h22.503906v99.09375l-24.875 8.289062c-3.925781 1.308594-6.050781 5.558594-4.742188 9.488282 1.046876 3.140625 3.976563 5.128906 7.113282 5.128906.789062 0 1.585937-.125 2.375-.386719l30-10c3.0625-1.019531 5.128906-3.886719 5.128906-7.113281v-104.5h45v104.5c0 3.226562 2.0625 6.09375 5.125 7.113281l30 10c.789062.261719 1.589844.386719 2.375.386719 3.140625 0 6.066406-1.988281 7.113281-5.128906 1.308594-3.929688-.8125-8.179688-4.742187-9.488282zm-87.375-262.382812h50c6.894531 0 12.5 5.605469 12.5 12.5v52.5h-75v-52.5c0-6.894531 5.609375-12.5 12.5-12.5zm-27.5 112.164062c0-11.6875 3.90625-22.980468 11.039062-32.164062h82.921875c7.132813 9.183594 11.039063 20.476562 11.039063 32.164062v27.835938h-105zm0 0"/><path d="m374.996094 152.5c0 28.949219 23.550781 52.5 52.5 52.5 28.945312 0 52.5-23.550781 52.5-52.5 0-17.855469-8.96875-33.648438-22.628906-43.136719 4.671874-4.125 7.628906-10.15625 7.628906-16.863281 0-20.679688-16.824219-37.5-37.5-37.5-20.679688 0-37.5 16.820312-37.5 37.5 0 6.707031 2.953125 12.738281 7.625 16.863281-13.660156 9.488281-22.625 25.28125-22.625 43.136719zm52.5 37.5c-20.679688 0-37.5-16.824219-37.5-37.5 0-2.570312.261718-5.078125.753906-7.5h73.492188c.492187 2.421875.753906 4.929688.753906 7.5 0 20.675781-16.824219 37.5-37.5 37.5zm-29.980469-60c6.847656-9.101562 17.738281-15 29.980469-15 12.242187 0 23.128906 5.898438 29.976562 15zm14.980469-30c-4.136719 0-7.5-3.363281-7.5-7.5 0-12.40625 10.09375-22.5 22.5-22.5s22.5 10.09375 22.5 22.5c0 4.136719-3.363282 7.5-7.5 7.5zm0 0"/></svg>
